<?xml version="1.0" encoding="UTF-8"?><svg id="_レイヤー_2" xmlns="http://www.w3.org/2000/svg" viewBox="0 0 240.36 49.86"><defs><style>.cls-1{fill:#51866f;}</style></defs><g id="_レイヤー_1-2"><g><path class="cls-1" d="m24.22,13.44h-10.77c-.94,0-1.7.76-1.7,1.7v4.17c0,.94.76,1.7,1.7,1.7h9.51c.94,0,1.7.76,1.7,1.7v6.57c0,.94-.76,1.7-1.7,1.7h-9.51c-.94,0-1.7.76-1.7,1.7v14.37c0,.94-.76,1.7-1.7,1.7H1.7c-.94,0-1.7-.76-1.7-1.7V5.18c0-.94.76-1.7,1.7-1.7h22.53c.94,0,1.7.76,1.7,1.7v6.57c0,.94-.76,1.7-1.7,1.7Z"/><path class="cls-1" d="m28.32,33.06c0-2.28.46-4.41,1.38-6.39.92-1.98,2.2-3.7,3.84-5.16,1.64-1.46,3.59-2.61,5.85-3.45,2.26-.84,4.73-1.26,7.41-1.26s5.09.41,7.35,1.23c2.26.82,4.22,1.96,5.88,3.42,1.66,1.46,2.95,3.2,3.87,5.22.92,2.02,1.38,4.25,1.38,6.69s-.47,4.67-1.41,6.69c-.94,2.02-2.23,3.76-3.87,5.22-1.64,1.46-3.61,2.59-5.91,3.39-2.3.8-4.79,1.2-7.47,1.2s-5.08-.4-7.32-1.2c-2.24-.8-4.17-1.94-5.79-3.42-1.62-1.48-2.89-3.25-3.81-5.31-.92-2.06-1.38-4.35-1.38-6.87Zm11.46.12c0,1.04.19,1.99.57,2.85.38.86.88,1.61,1.5,2.25.62.64,1.36,1.14,2.22,1.5.86.36,1.77.54,2.73.54s1.87-.18,2.73-.54c.86-.36,1.6-.86,2.22-1.5.62-.64,1.12-1.39,1.5-2.25.38-.86.57-1.79.57-2.79s-.19-1.87-.57-2.73c-.38-.86-.88-1.61-1.5-2.25-.62-.64-1.36-1.14-2.22-1.5-.86-.36-1.77-.54-2.73-.54s-1.87.18-2.73.54c-.86.36-1.6.86-2.22,1.5-.62.64-1.12,1.38-1.5,2.22-.38.84-.57,1.74-.57,2.7Z"/><path class="cls-1" d="m92.34,25.08c0,1.22-1.23,2-2.37,1.55s-2.21-.65-3.33-.65c-1.04,0-2.01.18-2.91.54-.9.36-1.69.87-2.37,1.53-.68.66-1.21,1.44-1.59,2.34-.38.9-.57,1.91-.57,3.03s.19,2.07.57,2.97c.38.9.9,1.68,1.56,2.34.66.66,1.45,1.17,2.37,1.53.92.36,1.9.54,2.94.54,1.16,0,2.28-.23,3.35-.68s2.35.34,2.35,1.56v5.13c0,.69-.41,1.33-1.06,1.57-2.29.87-4.48,1.31-6.56,1.31-2.24,0-4.37-.38-6.39-1.14-2.02-.76-3.8-1.85-5.34-3.27-1.54-1.42-2.77-3.12-3.69-5.1-.92-1.98-1.38-4.19-1.38-6.63s.44-4.67,1.32-6.69c.88-2.02,2.08-3.76,3.6-5.22,1.52-1.46,3.33-2.6,5.43-3.42,2.1-.82,4.35-1.23,6.75-1.23,2.22,0,4.29.4,6.23,1.18.65.27,1.09.88,1.09,1.59v5.33Z"/><path class="cls-1" d="m120.82,17.94h9.04c.52,0,.94.42.94.94v28.9c0,.52-.42.94-.94.94h-9.04c-.52,0-.94-.42-.94-.94v-.15c0-.8-.94-1.23-1.55-.7-2.11,1.83-4.73,2.75-7.87,2.75-2.24,0-4.3-.41-6.18-1.23-1.88-.82-3.52-1.97-4.92-3.45-1.4-1.48-2.49-3.22-3.27-5.22-.78-2-1.17-4.18-1.17-6.54,0-2.2.38-4.29,1.14-6.27.76-1.98,1.82-3.71,3.18-5.19,1.36-1.48,2.98-2.65,4.86-3.51,1.88-.86,3.96-1.29,6.24-1.29,3.11,0,5.79.88,8.04,2.64.61.48,1.5.03,1.5-.74h0c0-.52.42-.94.94-.94Zm-14.62,15.3c0,1,.18,1.93.54,2.79.36.86.85,1.61,1.47,2.25.62.64,1.36,1.14,2.22,1.5.86.36,1.79.54,2.79.54s1.87-.18,2.73-.54c.86-.36,1.6-.86,2.22-1.5.62-.64,1.12-1.38,1.5-2.22.38-.84.57-1.74.57-2.7s-.19-1.87-.57-2.73c-.38-.86-.88-1.61-1.5-2.25-.62-.64-1.36-1.14-2.22-1.5-.86-.36-1.77-.54-2.73-.54s-1.93.18-2.79.54c-.86.36-1.6.86-2.22,1.5-.62.64-1.11,1.37-1.47,2.19-.36.82-.54,1.71-.54,2.67Z"/><path class="cls-1" d="m159,25.06c0,1.23-1.24,2.01-2.38,1.56s-2.2-.64-3.32-.64c-1.04,0-2.01.18-2.91.54-.9.36-1.69.87-2.37,1.53-.68.66-1.21,1.44-1.59,2.34-.38.9-.57,1.91-.57,3.03s.19,2.07.57,2.97c.38.9.9,1.68,1.56,2.34.66.66,1.45,1.17,2.37,1.53.92.36,1.9.54,2.94.54,1.16,0,2.27-.23,3.34-.68,1.12-.47,2.36.35,2.36,1.57v5.1c0,.69-.42,1.34-1.07,1.58-2.29.87-4.47,1.31-6.55,1.31-2.24,0-4.37-.38-6.39-1.14-2.02-.76-3.8-1.85-5.34-3.27-1.54-1.42-2.77-3.12-3.69-5.1-.92-1.98-1.38-4.19-1.38-6.63s.44-4.67,1.32-6.69c.88-2.02,2.08-3.76,3.6-5.22,1.52-1.46,3.33-2.6,5.43-3.42,2.1-.82,4.35-1.23,6.75-1.23,2.21,0,4.29.39,6.22,1.18.66.27,1.1.89,1.1,1.6v5.3Z"/><path class="cls-1" d="m186,25.07c0,1.22-1.24,2-2.38,1.56s-2.21-.65-3.32-.65c-1.04,0-2.01.18-2.91.54-.9.36-1.69.87-2.37,1.53-.68.66-1.21,1.44-1.59,2.34-.38.9-.57,1.91-.57,3.03s.19,2.07.57,2.97c.38.9.9,1.68,1.56,2.34s1.45,1.17,2.37,1.53c.92.36,1.9.54,2.94.54,1.16,0,2.28-.23,3.35-.68s2.35.35,2.35,1.56v5.11c0,.69-.42,1.33-1.06,1.58-2.29.87-4.48,1.31-6.56,1.31-2.24,0-4.37-.38-6.39-1.14-2.02-.76-3.8-1.85-5.34-3.27-1.54-1.42-2.77-3.12-3.69-5.1-.92-1.98-1.38-4.19-1.38-6.63s.44-4.67,1.32-6.69c.88-2.02,2.08-3.76,3.6-5.22,1.52-1.46,3.33-2.6,5.43-3.42,2.1-.82,4.35-1.23,6.75-1.23,2.21,0,4.29.39,6.22,1.18.65.27,1.1.89,1.1,1.59v5.31Z"/><path class="cls-1" d="m189.06,6.12c0-.84.16-1.63.48-2.37.32-.74.76-1.39,1.32-1.95s1.21-1,1.95-1.32c.74-.32,1.53-.48,2.37-.48s1.63.16,2.37.48c.74.32,1.39.76,1.95,1.32.56.56,1,1.21,1.32,1.95.32.74.48,1.53.48,2.37s-.16,1.63-.48,2.37c-.32.74-.76,1.39-1.32,1.95-.56.56-1.21,1-1.95,1.32-.74.32-1.53.48-2.37.48s-1.63-.16-2.37-.48c-.74-.32-1.39-.76-1.95-1.32-.56-.56-1-1.21-1.32-1.95-.32-.74-.48-1.53-.48-2.37Zm11.58,13.53v27.35c0,.95-.77,1.71-1.71,1.71h-7.43c-.95,0-1.71-.77-1.71-1.71v-27.35c0-.95.77-1.71,1.71-1.71h7.43c.95,0,1.71.77,1.71,1.71Z"/><path class="cls-1" d="m230.38,17.94h9.04c.52,0,.94.42.94.94v28.9c0,.52-.42.94-.94.94h-9.04c-.52,0-.94-.42-.94-.94v-.15c0-.8-.94-1.23-1.55-.7-2.11,1.83-4.73,2.75-7.87,2.75-2.24,0-4.3-.41-6.18-1.23-1.88-.82-3.52-1.97-4.92-3.45-1.4-1.48-2.49-3.22-3.27-5.22-.78-2-1.17-4.18-1.17-6.54,0-2.2.38-4.29,1.14-6.27.76-1.98,1.82-3.71,3.18-5.19,1.36-1.48,2.98-2.65,4.86-3.51,1.88-.86,3.96-1.29,6.24-1.29,3.11,0,5.79.88,8.04,2.64.61.48,1.5.03,1.5-.74h0c0-.52.42-.94.94-.94Zm-14.62,15.3c0,1,.18,1.93.54,2.79.36.86.85,1.61,1.47,2.25.62.64,1.36,1.14,2.22,1.5.86.36,1.79.54,2.79.54s1.87-.18,2.73-.54c.86-.36,1.6-.86,2.22-1.5.62-.64,1.12-1.38,1.5-2.22s.57-1.74.57-2.7-.19-1.87-.57-2.73c-.38-.86-.88-1.61-1.5-2.25-.62-.64-1.36-1.14-2.22-1.5-.86-.36-1.77-.54-2.73-.54s-1.93.18-2.79.54c-.86.36-1.6.86-2.22,1.5-.62.64-1.11,1.37-1.47,2.19-.36.82-.54,1.71-.54,2.67Z"/></g></g></svg>